# This file uses centimeters as units for non-parametric coordinates.

mtllib rock1.mtl
g default
v 40.955028 7.294726 -0.130732
v 49.010949 0.364897 -2.217988
v 23.872536 4.466562 9.461838
v 23.733027 11.554482 1.933150
v 31.731225 -1.588029 10.828092
v 35.200040 2.823313 9.270772
v 30.711913 12.410195 1.852533
v 30.306879 6.579900 -2.732711
v 24.648206 4.536142 0.573185
v 38.091640 0.134622 -4.791220
v 38.488631 11.115767 2.695504
v 28.532899 10.166308 3.014931
v 35.807467 6.143124 -0.759062
v 30.685910 10.896073 0.232573
v 34.375773 2.563076 -3.089305
v 40.585364 -1.134024 4.433161
v 33.679910 0.678692 10.177542
v 35.125709 0.030394 3.146547
v 24.611365 8.967353 1.661047
v 24.681119 4.839883 5.425391
v 27.816536 2.065094 9.887816
v 28.625120 0.494559 5.851369
v 28.625121 0.494559 5.851369
v 26.990261 10.216077 0.234458
v 27.957408 4.750796 -0.065160
v 27.957408 4.750796 -0.065160
v 31.673272 1.155327 -1.767075
vt 0.181818 0.250000
vt 0.363636 0.250000
vt 0.545455 0.250000
vt 0.727273 0.250000
vt 0.909091 0.250000
vt 0.090909 0.416667
vt 0.272727 0.416667
vt 0.454545 0.416667
vt 0.636364 0.416667
vt 0.818182 0.416667
vt 1.000000 0.416667
vt 0.000000 0.583333
vt 0.181818 0.583333
vt 0.363636 0.583333
vt 0.545455 0.583333
vt 0.727273 0.583333
vt 0.909091 0.583333
vt 0.090909 0.750000
vt 0.272727 0.750000
vt 0.454545 0.750000
vt 0.636364 0.750000
vt 0.818182 0.750000
vt 0.636364 0.583333
vt 0.590909 0.500000
vt 0.590909 0.666667
vt 0.500000 0.666667
vt 0.090909 0.583333
vt 0.136364 0.500000
vt 0.136364 0.666667
vt 0.227273 0.666667
vt 0.409091 0.500000
vt 0.318182 0.500000
vt 0.227273 0.500000
vt 0.303030 0.583333
vt 0.242424 0.583333
vt 0.500000 0.500000
vt 0.484848 0.583333
vt 0.424242 0.583333
vt 0.318182 0.666667
vt 0.409091 0.666667
vn 0.864031 -0.491909 0.107130
vn -0.015199 -0.740349 -0.672051
vn 0.207561 0.572470 -0.793219
vn 0.499751 0.605579 0.619292
vn 0.083855 0.545597 -0.833842
vn 0.101946 0.510400 -0.853873
vn -0.170353 0.161858 -0.971999
vn 0.055574 0.927626 -0.369354
vn -0.163214 0.308140 -0.937236
vn -0.142759 -0.943660 0.298538
vn 0.299312 -0.909232 0.289327
vn 0.408050 0.022951 0.912671
vn -0.106603 -0.982260 -0.154280
vn 0.439868 0.338045 0.832011
vn -0.862889 -0.495833 -0.097836
vn -0.833398 -0.143523 -0.533713
vn -0.735585 -0.545065 -0.402267
vn -0.402103 0.382466 0.831885
vn 0.033188 0.658772 0.751611
vn -0.674697 0.728689 0.117458
vn -0.486882 -0.343326 0.803164
vn -0.319262 -0.941701 -0.106164
vn -0.336737 0.377668 -0.862540
vn -0.638221 -0.244721 -0.729922
vn -0.329171 -0.861017 -0.387681
vn -0.423664 -0.899585 -0.106090
vn -0.198860 0.240050 -0.950174
s 1
g pSolid3
usemtl lambert3SG
f 2/17/1 10/22/2 1/16/3
f 1/16/3 11/10/4 2/17/1
f 14/24/5 13/23/6 8/15/7
f 1/16/3 7/9/8 11/10/4
f 13/23/6 15/25/9 8/15/7
f 5/13/10 16/27/11 17/28/12
f 18/29/13 16/27/11 5/13/10
f 2/17/1 11/10/4 6/11/14
f 20/32/15 19/31/16 9/14/17
f 3/7/18 12/2/19 4/8/20
f 5/13/10 17/28/12 21/33/21
f 21/33/21 23/35/22 5/13/10
f 6/6/14 12/1/19 3/7/18
f 24/36/23 14/24/5 8/15/7
f 4/8/20 12/3/19 7/9/8
f 25/37/24 24/36/23 8/15/7
f 5/13/10 23/35/22 18/30/13
f 6/11/14 11/10/4 12/5/19
f 7/9/8 12/4/19 11/10/4
f 8/15/7 15/26/9 25/37/24
f 27/39/25 22/34/26 9/14/17
f 10/18/2 2/12/1 16/27/11 18/29/13
f 17/28/12 16/27/11 2/12/1 6/6/14
f 21/33/21 17/28/12 6/6/14 3/7/18
f 22/34/26 20/32/15 9/14/17
f 26/38/27 27/40/25 9/14/17
f 19/31/16 26/38/27 9/14/17
f 7/9/8 14/24/5 24/36/23 4/8/20
f 1/16/3 13/23/6 14/24/5 7/9/8
f 1/16/3 10/21/2 15/25/9 13/23/6
f 25/37/24 15/26/9 10/20/2 27/40/25 26/38/27
f 18/30/13 23/35/22 22/34/26 27/39/25 10/19/2
f 3/7/18 20/32/15 22/34/26 23/35/22 21/33/21
f 4/8/20 19/31/16 20/32/15 3/7/18
f 4/8/20 24/36/23 25/37/24 26/38/27 19/31/16
