# This file uses centimeters as units for non-parametric coordinates.

mtllib rock2.mtl
g default
v 15.890188 2.781303 32.922844
v 13.345317 1.301843 35.056404
v 10.191223 5.113015 40.991546
v 9.857668 1.578666 44.175449
v 11.894368 1.417116 41.723663
v 17.818411 4.625532 38.968418
v 9.827701 4.445773 38.261345
v 12.752210 1.937455 33.740242
v 15.755172 1.110916 40.240131
v 15.594806 3.467630 41.703274
v 16.312983 4.135863 34.294483
v 16.353135 6.499188 37.672592
v 17.467036 5.430734 38.626316
v 13.854696 3.695312 34.802452
v 14.413804 8.052961 40.892406
v 11.571500 5.442705 38.283058
v 11.840590 6.060371 40.804245
v 15.544085 5.133555 41.262653
vt 0.181818 0.250000
vt 0.363636 0.250000
vt 0.545455 0.250000
vt 0.727273 0.250000
vt 0.909091 0.250000
vt 0.090909 0.416667
vt 0.272727 0.416667
vt 0.454545 0.416667
vt 0.636364 0.416667
vt 0.818182 0.416667
vt 1.000000 0.416667
vt 0.000000 0.583333
vt 0.181818 0.583333
vt 0.363636 0.583333
vt 0.545455 0.583333
vt 0.727273 0.583333
vt 0.909091 0.583333
vt 0.090909 0.750000
vt 0.272727 0.750000
vt 0.454545 0.750000
vt 0.636364 0.750000
vt 0.818182 0.750000
vt 0.636364 0.416667
vt 0.727273 0.583333
vt 0.636364 0.750000
vt 0.363636 0.583333
vt 0.272727 0.416667
vt 0.363636 0.250000
vt 0.545455 0.250000
vt 0.454545 0.750000
vn -0.016358 -0.982142 -0.187428
vn -0.589592 -0.747517 -0.305940
vn 0.604470 -0.774862 -0.184945
vn 0.473500 -0.868413 0.147162
vn -0.204949 0.755337 -0.622464
vn 0.125057 0.867431 -0.481585
vn 0.804657 0.586679 0.091294
vn 0.860329 -0.509585 -0.012527
vn -0.334912 0.714331 -0.614463
vn -0.805295 -0.521026 0.282897
vn 0.147072 -0.696921 0.701905
vn -0.049967 0.978795 0.198654
vn -0.390738 0.779424 -0.489716
vn -0.354048 0.634811 0.686778
vn 0.205764 0.287962 0.935275
vn -0.470088 0.336263 0.816054
vn -0.863538 -0.455476 -0.216435
vn 0.255393 -0.070484 0.964265
vn 0.941323 0.119360 -0.315696
vn 0.941323 0.119360 -0.315696
vn 0.941323 0.119360 -0.315696
vn 0.941323 0.119360 -0.315696
vn -0.313134 0.675489 -0.667579
vn -0.378092 0.671143 -0.637663
vn -0.451348 0.750768 -0.482319
vn -0.497071 0.854775 -0.149266
vn 0.707935 0.315365 0.631959
vn 0.707936 0.315365 0.631959
vn 0.707936 0.315365 0.631959
vn 0.707936 0.315365 0.631959
s 1
g pSolid2
usemtl lambert3SG
f 2/17/1 8/22/2 1/16/3
f 1/16/3 9/10/4 2/17/1
f 11/24/5 12/15/6 13/23/7
f 1/16/3 6/9/8 9/10/4
f 11/24/5 14/25/9 12/15/6
f 4/13/10 2/12/1 5/6/11
f 8/18/2 2/12/1 4/13/10
f 2/17/1 9/10/4 5/11/11
f 15/8/12 16/26/13 17/27/14
f 17/27/14 18/28/15 15/8/12
f 4/13/10 5/6/11 3/7/16
f 3/7/16 7/14/17 4/13/10
f 5/6/11 10/1/18 3/7/16
f 13/23/7 12/15/6 15/8/12
f 15/8/12 18/29/15 13/23/7
f 15/8/12 12/15/6 16/26/13
f 4/13/10 7/14/17 8/19/2
f 5/11/11 9/10/4 10/5/18
f 6/9/8 10/4/18 9/10/4
f 12/15/6 14/30/9 16/26/13
s off
f 6/9/19 1/16/20 11/24/21 13/23/22
s 1
f 1/16/23 8/21/24 14/25/9 11/24/5
f 7/14/25 3/7/26 17/27/14 16/26/13
f 3/7/16 10/2/18 18/28/15 17/27/14
s off
f 10/3/27 6/9/28 13/23/29 18/29/30
s 1
f 8/20/24 7/14/25 16/26/13 14/30/9
