# This file uses centimeters as units for non-parametric coordinates.

mtllib roick3.mtl
g default
v 2.079400 5.942567 -2.239406
v 7.983056 3.071069 0.954367
v -3.263635 1.641604 6.326768
v -4.577656 5.588415 3.808200
v 1.934820 2.485938 6.887237
v 3.342232 3.680968 6.570591
v -2.183393 8.041261 1.769155
v -3.294588 4.771509 -0.056564
v -1.947898 1.455050 3.101779
v 3.977865 1.670924 -0.747378
v 3.239332 6.488715 3.330802
v -1.127772 5.584465 5.799688
vt 0.181818 0.250000
vt 0.363636 0.250000
vt 0.545455 0.250000
vt 0.727273 0.250000
vt 0.909091 0.250000
vt 0.090909 0.416667
vt 0.272727 0.416667
vt 0.454545 0.416667
vt 0.636364 0.416667
vt 0.818182 0.416667
vt 1.000000 0.416667
vt 0.000000 0.583333
vt 0.181818 0.583333
vt 0.363636 0.583333
vt 0.545455 0.583333
vt 0.727273 0.583333
vt 0.909091 0.583333
vt 0.090909 0.750000
vt 0.272727 0.750000
vt 0.454545 0.750000
vt 0.636364 0.750000
vt 0.818182 0.750000
vn 0.980093 -0.184427 -0.073513
vn 0.156777 -0.873063 -0.461716
vn 0.166927 0.492795 -0.853984
vn 0.454777 0.867853 0.200023
vn -0.638936 -0.232015 -0.733437
vn -0.193632 0.973231 -0.123809
vn 0.199046 -0.906802 0.371606
vn 0.493248 0.314752 0.810949
vn -0.942777 0.231977 0.239495
vn -0.282498 -0.935855 -0.210641
vn -0.520349 -0.564627 0.640651
vn -0.100797 0.589588 0.801390
s 1
g pSolid1
usemtl lambert3SG
f 2/17/1 10/22/2 1/16/3
f 1/16/3 11/10/4 2/17/1
f 1/16/3 8/15/5 7/9/6
f 1/16/3 7/9/6 11/10/4
f 1/16/3 10/21/2 8/15/5
f 5/13/7 2/12/1 6/6/8
f 10/18/2 2/12/1 5/13/7
f 2/17/1 11/10/4 6/11/8
f 4/8/9 9/14/10 3/7/11
f 3/7/11 12/2/12 4/8/9
f 5/13/7 6/6/8 3/7/11
f 3/7/11 9/14/10 5/13/7
f 6/6/8 12/1/12 3/7/11
f 7/9/6 8/15/5 4/8/9
f 4/8/9 12/3/12 7/9/6
f 4/8/9 8/15/5 9/14/10
f 5/13/7 9/14/10 10/19/2
f 6/11/8 11/10/4 12/5/12
f 7/9/6 12/4/12 11/10/4
f 8/15/5 10/20/2 9/14/10
